<?xml version="1.0" standalone="no"?>
<!DOCTYPE svg PUBLIC "-//W3C//DTD SVG 20010904//EN"
 "http://www.w3.org/TR/2001/REC-SVG-20010904/DTD/svg10.dtd">
<svg version="1.0" xmlns="http://www.w3.org/2000/svg"
 width="1710.000000pt" height="500.000000pt" viewBox="0 0 1710.000000 500.000000"
 preserveAspectRatio="xMidYMid meet">

<g transform="translate(0.000000,500.000000) scale(0.100000,-0.100000)"
fill="#000000" stroke="none">
<path d="M2340 4493 c-156 -12 -361 -57 -520 -115 -815 -297 -1352 -1089
-1316 -1943 16 -387 123 -726 330 -1038 333 -502 874 -827 1475 -887 682 -67
1375 239 1785 789 371 499 491 1096 340 1696 -99 393 -336 770 -648 1032 -401
337 -923 505 -1446 466z m368 -34 c359 -39 696 -175 997 -402 104 -79 274
-250 354 -355 228 -302 364 -647 401 -1021 37 -371 -30 -721 -202 -1061 -201
-397 -489 -684 -883 -880 -178 -88 -284 -126 -455 -164 -909 -200 -1839 270
-2220 1121 -106 238 -158 471 -167 748 -9 254 19 442 97 679 221 663 785 1162
1475 1306 190 39 413 50 603 29z"/>
<path d="M2530 4220 c-8 -5 -12 -12 -9 -15 4 -3 12 1 19 10 14 17 11 19 -10 5z"/>
<path d="M2375 4115 c0 -99 1 -105 20 -104 11 0 14 3 8 6 -9 3 -13 29 -13 80
l0 75 67 -80 c67 -82 90 -93 79 -40 -7 36 -121 168 -145 168 -14 0 -16 -14
-16 -105z"/>
<path d="M2069 4157 c-8 -18 -9 -31 -3 -35 5 -4 29 -36 53 -71 34 -50 40 -66
29 -73 -12 -9 -2 -7 54 8 13 4 7 18 -35 77 -29 40 -59 84 -68 97 l-17 25 -13
-28z"/>
<path d="M2982 4134 c-30 -21 -27 -50 8 -103 39 -58 38 -82 -5 -94 -11 -3 -2
-5 20 -4 31 2 42 7 54 29 15 25 14 29 -23 82 -37 54 -38 57 -22 81 19 30 4 34
-32 9z"/>
<path d="M3063 4124 c9 -11 17 -31 18 -45 l0 -24 10 24 c5 13 8 24 7 25 -2 1
-14 10 -28 21 l-25 20 18 -21z"/>
<path d="M1772 4071 c-27 -14 -31 -19 -20 -29 8 -6 29 -46 48 -89 18 -43 34
-79 35 -81 2 -1 13 2 27 8 l24 12 -44 84 c-24 47 -41 92 -38 100 7 17 9 17
-32 -5z"/>
<path d="M2052 4050 c0 -14 2 -19 5 -12 2 6 2 18 0 25 -3 6 -5 1 -5 -13z"/>
<path d="M1650 4010 c-19 -11 -29 -19 -22 -20 7 0 32 -40 56 -88 39 -81 44
-88 64 -79 21 9 20 11 -24 99 -24 49 -42 93 -39 98 8 13 6 12 -35 -10z"/>
<path d="M2923 3997 c-9 -30 -8 -34 13 -44 23 -10 23 -10 9 10 -8 12 -12 31
-9 44 9 35 -1 27 -13 -10z"/>
<path d="M3293 3999 c-6 -16 -8 -29 -3 -29 4 0 13 -45 21 -100 7 -55 16 -99
21 -98 5 2 19 19 31 38 12 19 17 31 11 27 -8 -4 -16 24 -24 84 -9 64 -18 92
-30 99 -13 7 -19 2 -27 -21z"/>
<path d="M2038 3978 c-4 -23 -2 -28 15 -28 14 0 17 3 10 13 -6 6 -12 19 -15
27 -3 9 -7 4 -10 -12z"/>
<path d="M3424 3939 c0 -13 3 -15 13 -7 7 6 13 12 13 13 0 2 -6 5 -13 8 -7 3
-13 -3 -13 -14z"/>
<path d="M3217 3866 c-14 -21 -15 -25 -1 -30 8 -3 12 -1 9 4 -3 5 -1 19 5 30
15 28 6 25 -13 -4z"/>
<path d="M1381 3818 c1 -22 14 -49 24 -50 21 0 125 -64 125 -76 0 -9 10 -7 31
9 l30 21 -93 54 c-96 55 -119 63 -117 42z"/>
<path d="M3645 3757 c-11 -7 -21 -21 -22 -32 -3 -35 -53 -136 -63 -130 -22 13
-8 -2 19 -23 l29 -21 36 92 c19 51 36 98 38 106 4 19 -13 23 -37 8z"/>
<path d="M3553 3712 c-9 -5 -6 -12 10 -21 19 -13 21 -12 10 1 -7 8 -10 18 -6
21 9 9 1 8 -14 -1z"/>
<path d="M1416 3698 c3 -5 10 -6 15 -3 13 9 11 12 -6 12 -8 0 -12 -4 -9 -9z"/>
<path d="M2306 3694 c-233 -36 -450 -142 -633 -309 -84 -76 -201 -233 -257
-345 -162 -325 -168 -720 -15 -1049 137 -295 404 -535 706 -637 248 -83 538
-83 786 0 302 102 569 342 706 637 156 336 146 745 -26 1069 -248 465 -747
715 -1267 634z m769 -399 c29 -28 30 -36 9 -81 -22 -46 -8 -123 61 -331 68
-205 79 -260 71 -345 l-6 -68 27 0 c84 1 187 92 254 224 44 86 54 95 90 76 29
-16 23 -48 -29 -139 -86 -154 -199 -242 -328 -257 -52 -7 -64 -12 -102 -51
-59 -62 -138 -95 -233 -101 -46 -3 -91 1 -114 8 -50 16 -114 75 -136 125 -22
47 -25 157 -6 194 15 31 56 45 90 32 25 -10 26 -13 20 -56 -8 -62 18 -130 60
-151 57 -30 136 -15 180 33 16 18 16 23 2 49 -8 16 -15 37 -15 46 0 32 23 68
48 75 23 6 24 8 19 64 -4 32 -25 111 -47 176 -47 136 -80 264 -80 311 0 17 -4
32 -9 32 -35 0 -233 -322 -290 -471 -17 -46 -83 -142 -135 -198 -84 -88 -201
-132 -304 -113 -47 8 -49 8 -96 -34 -94 -82 -203 -124 -326 -124 -136 0 -232
52 -285 155 -28 55 -30 65 -30 174 0 77 6 138 18 181 58 221 225 408 416 470
102 32 234 26 308 -14 103 -57 150 -165 140 -326 -7 -109 -31 -202 -82 -308
-19 -41 -35 -76 -35 -79 0 -3 24 -3 54 0 127 13 190 78 317 330 109 218 180
329 263 415 72 76 116 101 174 102 33 0 49 -6 67 -25z m-1295 -1245 c-18 -11
-2 -65 20 -65 20 0 25 42 9 62 -11 13 -10 15 6 12 25 -5 32 -51 11 -72 -13
-13 -13 -17 4 -32 32 -29 22 -95 -14 -95 -6 0 -5 5 2 12 19 19 14 42 -13 68
l-24 23 -12 -27 c-9 -20 -9 -32 -1 -51 12 -26 4 -33 -16 -13 -18 18 -14 49 8
73 18 20 19 23 5 35 -27 22 -13 80 20 80 5 0 3 -4 -5 -10z m780 0 c-18 -11 -2
-65 20 -65 20 0 25 42 9 62 -11 13 -10 15 6 12 25 -5 32 -51 11 -72 -13 -13
-13 -17 4 -32 32 -29 22 -95 -14 -95 -6 0 -5 5 2 12 19 19 14 42 -13 68 l-24
23 -12 -27 c-9 -20 -9 -32 -1 -51 12 -26 4 -33 -16 -13 -18 18 -14 49 8 73 18
20 19 23 5 35 -27 22 -13 80 20 80 5 0 3 -4 -5 -10z m-80 -49 c0 -14 -9 -20
-35 -23 -28 -3 -35 0 -35 13 0 12 6 15 24 12 13 -3 27 0 30 6 10 16 16 13 16
-8z m-799 -10 c29 -23 31 -81 4 -111 -27 -30 -36 -24 -18 11 30 60 -9 134 -52
99 -18 -15 -20 -101 -3 -118 18 -18 -3 -14 -24 5 -25 23 -24 81 4 110 26 28
58 29 89 4z m272 -123 c7 -4 -6 -7 -28 -7 -22 0 -34 3 -27 6 7 3 12 25 12 58
0 33 -5 55 -12 58 -8 3 -3 9 12 15 25 9 25 9 28 -57 2 -37 8 -69 15 -73z m115
130 c20 -20 14 -42 -18 -73 -39 -37 -38 -48 5 -43 24 3 35 0 35 -9 0 -9 -17
-13 -56 -13 l-56 0 36 40 c52 57 46 113 -9 88 -20 -9 -20 -9 -1 6 24 19 48 20
64 4z m284 -5 c24 -21 24 -100 0 -129 -20 -25 -61 -48 -70 -40 -3 3 0 6 6 6
14 0 52 36 52 49 0 4 -10 6 -22 4 -56 -10 -84 71 -38 109 28 22 48 23 72 1z
m669 -2 c29 -23 31 -81 4 -111 -27 -30 -36 -24 -18 11 30 60 -9 134 -52 99
-18 -15 -20 -101 -3 -118 18 -18 -3 -14 -24 5 -25 23 -24 81 4 110 26 28 58
29 89 4z m147 4 c2 -2 -5 -20 -16 -42 -11 -21 -23 -60 -27 -86 -4 -26 -11 -47
-16 -47 -17 0 -9 56 16 102 14 26 25 50 25 54 0 3 -18 4 -40 2 -32 -3 -40 0
-40 13 0 14 8 16 48 11 26 -2 48 -6 50 -7z m106 -1 c23 -22 21 -29 -21 -76
l-38 -41 43 5 c32 5 42 3 42 -8 0 -10 -15 -14 -56 -14 l-56 0 30 34 c17 19 33
44 37 56 9 28 -12 52 -39 45 -17 -5 -18 -4 -6 4 22 15 46 13 64 -5z m151 -94
c20 0 19 -19 0 -26 -8 -4 -15 -17 -15 -30 0 -15 -6 -24 -15 -24 -9 0 -15 9
-15 25 0 21 -5 25 -29 25 -35 0 -46 13 -26 30 10 9 15 9 15 1 0 -6 9 -11 20
-11 16 0 20 7 20 36 l0 36 -21 -23 c-11 -13 -6 -2 13 25 l33 48 3 -56 c2 -41
7 -56 17 -56z m-705 40 c0 -46 4 -61 18 -69 13 -8 7 -10 -28 -11 -29 0 -40 3
-31 9 10 6 12 25 9 70 -4 54 -2 61 14 61 15 0 18 -9 18 -60z m-512 -7 c-15 -2
-42 -2 -60 0 -18 2 -6 4 27 4 33 0 48 -2 33 -4z m280 -39 c2 -25 -3 -37 -24
-53 -15 -11 -36 -20 -48 -20 -21 2 -21 2 1 6 30 6 45 27 41 60 -2 22 -9 29
-30 31 -16 2 -28 7 -28 11 0 4 19 5 43 2 38 -6 42 -9 45 -37z m360 39 c-16 -2
-40 -2 -55 0 -16 2 -3 4 27 4 30 0 43 -2 28 -4z"/>
<path d="M1926 3074 c-113 -36 -246 -221 -282 -394 -41 -192 13 -322 132 -322
60 0 119 23 161 64 28 27 32 36 27 67 -7 44 23 88 64 93 25 3 30 12 61 103 43
126 54 268 24 324 -37 70 -101 92 -187 65z"/>
<path d="M2288 1975 c-23 -52 26 -114 52 -66 14 27 -1 85 -23 89 -10 2 -21 -7
-29 -23z"/>
<path d="M3482 3682 c-22 -7 -22 -7 -3 -19 16 -10 20 -9 24 8 3 10 4 19 4 18
-1 -1 -12 -4 -25 -7z"/>
<path d="M1435 3640 c10 -35 13 -36 33 -15 10 10 11 14 3 10 -9 -5 -19 -1 -29
11 -13 18 -14 18 -7 -6z"/>
<path d="M1151 3606 c-13 -16 -6 -57 9 -53 4 1 38 -21 74 -50 64 -51 66 -52
80 -31 14 19 11 23 -47 66 -34 24 -71 53 -83 64 -18 16 -23 17 -33 4z"/>
<path d="M3796 3501 c-34 -23 -55 -56 -56 -89 0 -23 26 -82 36 -82 2 0 0 9 -6
19 -15 30 -13 38 26 81 44 48 104 71 132 49 10 -8 5 -2 -10 14 -34 33 -80 36
-122 8z"/>
<path d="M1039 3459 c-13 -18 -17 -29 -11 -25 7 4 20 2 29 -6 12 -9 15 -9 9 0
-9 16 -12 16 93 -12 50 -14 91 -22 91 -18 0 12 -36 62 -41 57 -4 -4 -70 11
-126 29 -17 5 -26 0 -44 -25z"/>
<path d="M3950 3428 c0 -12 -8 -30 -17 -41 -18 -20 -18 -20 8 -3 20 12 25 22
21 41 -5 31 -12 32 -12 3z"/>
<path d="M1170 3344 c0 -1 6 -7 14 -13 10 -8 16 -8 24 1 8 10 4 13 -14 13 -13
0 -24 -1 -24 -1z"/>
<path d="M3830 3322 c-8 -4 -16 -14 -18 -22 -3 -11 3 -9 20 5 13 11 25 21 27
22 9 6 -15 1 -29 -5z"/>
<path d="M935 3221 c-11 -5 -28 -18 -39 -29 -18 -21 -18 -21 12 -10 39 15 109
-10 154 -55 l31 -32 -6 34 c-9 42 -32 69 -74 87 -36 16 -49 16 -78 5z"/>
<path d="M4080 3224 c0 -14 -168 -86 -181 -78 -5 3 -9 2 -9 -1 0 -5 18 -45 25
-52 1 -2 21 6 44 18 24 11 45 18 48 15 6 -6 -31 -69 -51 -85 -11 -10 -12 -19
-4 -42 l10 -30 47 68 c41 60 45 69 29 75 -10 4 -18 11 -18 16 0 11 54 35 76
35 8 0 14 1 14 3 0 9 -29 66 -30 58z"/>
<path d="M870 3115 c0 -84 113 -136 177 -81 l28 24 -45 -5 c-53 -5 -127 28
-147 68 l-13 24 0 -30z"/>
<path d="M4123 3098 c-9 -11 -8 -16 8 -26 20 -13 22 -9 10 21 -6 16 -9 17 -18
5z"/>
<path d="M4111 2784 c-27 -35 -26 -59 4 -89 47 -48 115 -22 115 44 0 70 -77
99 -119 45z"/>
<path d="M782 2774 c-16 -11 -22 -25 -22 -53 0 -46 24 -71 67 -71 39 0 63 28
63 73 0 39 -27 67 -65 67 -11 0 -31 -7 -43 -16z"/>
<path d="M4104 2472 c-6 -4 -13 -15 -17 -25 -6 -15 -4 -16 13 -7 12 7 27 7 44
0 20 -7 26 -6 26 3 0 29 -40 47 -66 29z"/>
<path d="M780 2450 c-11 -11 -20 -28 -20 -37 0 -13 3 -15 8 -5 21 33 114 36
140 4 6 -9 12 -11 12 -5 0 6 -9 22 -21 37 -26 33 -88 37 -119 6z"/>
<path d="M4080 2388 c0 -13 8 -18 29 -18 15 0 49 -3 75 -6 42 -6 46 -5 46 14
0 18 -7 21 -75 24 -66 3 -75 1 -75 -14z"/>
<path d="M885 2350 c-16 -7 -17 -9 -3 -9 9 -1 20 4 23 9 7 11 7 11 -20 0z"/>
<path d="M920 2229 c-8 -5 -41 -13 -72 -19 -46 -9 -58 -15 -58 -30 0 -12 5
-17 13 -14 7 2 42 10 78 17 59 11 64 14 59 33 -3 16 -9 19 -20 13z"/>
<path d="M4131 2213 c-79 -13 -90 -18 -75 -33 8 -8 141 4 152 14 2 3 2 11 0
18 -2 12 -15 12 -77 1z"/>
<path d="M4175 2110 c-3 -5 -1 -10 4 -10 6 0 11 5 11 10 0 6 -2 10 -4 10 -3 0
-8 -4 -11 -10z"/>
<path d="M885 2048 c-28 -15 -45 -38 -45 -62 0 -20 0 -20 15 1 18 25 77 47
111 40 28 -5 29 -4 8 17 -18 18 -60 20 -89 4z"/>
<path d="M4010 2019 c0 -5 9 -9 20 -9 11 0 20 2 20 4 0 2 -9 6 -20 9 -11 3
-20 1 -20 -4z"/>
<path d="M985 1970 c-21 -23 -89 -44 -112 -35 -13 4 -14 3 -4 -9 20 -24 47
-28 85 -12 22 9 40 26 46 42 13 34 8 39 -15 14z"/>
<path d="M4110 1986 c0 -2 7 -7 16 -10 8 -3 12 -2 9 4 -6 10 -25 14 -25 6z"/>
<path d="M3980 1954 c0 -55 70 -97 119 -72 38 20 35 34 -6 30 -46 -3 -83 15
-100 48 l-13 25 0 -31z"/>
<path d="M1059 1834 c-6 -15 -116 -74 -124 -66 -4 4 -1 -6 6 -21 7 -15 15 -23
18 -18 4 5 34 23 67 39 59 27 61 29 49 52 -7 13 -14 19 -16 14z"/>
<path d="M1090 1764 c0 -15 -49 -36 -63 -27 -7 4 -6 -1 2 -10 29 -36 95 -5 70
34 -5 7 -9 9 -9 3z"/>
<path d="M3886 1762 c-10 -16 16 -29 84 -39 62 -10 79 -6 80 18 0 4 -30 10
-67 14 -36 4 -72 9 -79 12 -6 2 -15 0 -18 -5z"/>
<path d="M3976 1635 c4 -8 7 -15 9 -15 2 0 5 7 9 15 3 9 0 15 -9 15 -9 0 -12
-6 -9 -15z"/>
<path d="M1139 1542 c-27 -44 -33 -62 -26 -74 9 -13 18 -4 54 51 48 74 50 81
26 81 -11 -1 -33 -25 -54 -58z"/>
<path d="M1045 1560 c4 -6 11 -8 16 -5 14 9 11 15 -7 15 -8 0 -12 -5 -9 -10z"/>
<path d="M3750 1554 c-7 -8 -11 -16 -9 -17 2 -2 30 -22 63 -46 53 -40 59 -42
74 -27 9 9 11 16 5 16 -6 0 -36 20 -66 45 -48 38 -57 42 -67 29z"/>
<path d="M3898 1524 c3 -17 8 -22 15 -15 11 11 3 41 -11 41 -5 0 -7 -12 -4
-26z"/>
<path d="M1301 1456 c-10 -12 -9 -14 7 -9 54 14 18 -54 -51 -97 -25 -16 -26
-18 -10 -31 16 -14 23 -10 70 41 l53 56 -29 28 c-24 23 -30 25 -40 12z"/>
<path d="M3641 1427 c-9 -11 -1 -24 38 -60 27 -25 51 -51 53 -57 2 -7 9 -5 19
7 14 17 11 22 -42 71 -46 43 -58 50 -68 39z"/>
<path d="M1380 1381 c0 -12 5 -21 10 -21 6 0 10 6 10 14 0 8 -4 18 -10 21 -5
3 -10 -3 -10 -14z"/>
<path d="M1438 1245 c-38 -46 -68 -89 -68 -97 0 -7 14 3 30 22 76 89 120 149
113 153 -5 3 -38 -33 -75 -78z"/>
<path d="M3540 1316 c0 -2 7 -7 16 -10 8 -3 12 -2 9 4 -6 10 -25 14 -25 6z"/>
<path d="M3486 1288 c-36 -51 2 -128 64 -128 l30 0 -45 43 c-45 44 -55 73 -33
95 7 7 9 12 6 12 -4 0 -14 -10 -22 -22z"/>
<path d="M1566 1148 c-10 -44 -15 -83 -12 -86 13 -12 32 21 46 82 15 59 15 65
0 74 -15 9 -19 0 -34 -70z"/>
<path d="M3320 1213 c0 -16 112 -193 122 -193 13 0 11 5 -44 92 -56 90 -78
119 -78 101z"/>
<path d="M1637 1103 c-17 -78 -16 -96 5 -75 20 20 47 129 34 142 -18 18 -22
11 -39 -67z"/>
<path d="M1730 1120 c0 -5 5 -10 10 -10 6 0 10 5 10 10 0 6 -4 10 -10 10 -5 0
-10 -4 -10 -10z"/>
<path d="M3175 1089 c-4 -6 6 -24 21 -41 73 -78 76 -80 96 -71 17 7 12 15 -46
66 -40 35 -67 53 -71 46z"/>
<path d="M1885 1050 c-14 -22 -15 -144 -3 -152 25 -15 28 -7 28 77 0 77 -8
102 -25 75z"/>
<path d="M2993 1022 c-9 -6 -6 -25 12 -75 14 -37 25 -80 25 -94 0 -21 2 -24
15 -13 20 16 19 28 -7 116 -24 77 -25 79 -45 66z"/>
<path d="M2069 983 c-5 -22 64 -167 74 -157 13 13 7 42 -23 108 -29 67 -45 81
-51 49z"/>
<path d="M2166 967 c3 -10 9 -15 12 -12 3 3 0 11 -7 18 -10 9 -11 8 -5 -6z"/>
<path d="M2846 973 c5 -5 12 -12 16 -18 4 -6 8 -2 8 8 0 9 -7 17 -17 17 -9 0
-12 -3 -7 -7z"/>
<path d="M2770 959 c0 -13 22 -142 25 -147 1 -1 9 0 18 4 11 4 15 14 13 28
-21 100 -29 126 -42 126 -8 0 -14 -5 -14 -11z"/>
<path d="M3180 945 c0 -8 4 -15 10 -15 5 0 7 7 4 15 -4 8 -8 15 -10 15 -2 0
-4 -7 -4 -15z"/>
<path d="M1785 940 c3 -5 8 -10 11 -10 2 0 4 5 4 10 0 6 -5 10 -11 10 -5 0 -7
-4 -4 -10z"/>
<path d="M2343 935 c-7 -11 -4 -35 8 -72 11 -30 16 -59 13 -64 -3 -5 6 -9 19
-9 l25 0 -22 74 c-24 84 -30 94 -43 71z"/>
<path d="M2534 924 c3 -9 6 -42 6 -75 0 -53 2 -59 21 -59 15 0 19 4 15 16 -3
9 -6 42 -6 75 0 53 -2 59 -21 59 -15 0 -19 -4 -15 -16z"/>
<path d="M2608 905 c4 -37 18 -41 36 -13 7 12 6 21 -3 32 -23 28 -37 19 -33
-19z"/>
<path d="M2836 914 c-8 -21 -8 -21 7 -27 10 -4 13 2 9 19 -5 28 -8 30 -16 8z"/>
<path d="M2606 843 c7 -16 14 -34 14 -40 0 -8 12 -13 28 -12 15 0 21 3 15 6
-7 2 -13 11 -13 19 0 16 -35 54 -49 54 -6 0 -3 -12 5 -27z"/>
<path d="M2876 845 c-3 -9 0 -15 9 -15 16 0 20 16 6 24 -5 3 -11 -1 -15 -9z"/>
<path d="M2275 810 c-3 -5 -1 -10 4 -10 6 0 11 5 11 10 0 6 -2 10 -4 10 -3 0
-8 -4 -11 -10z"/>
<path d="M5085 2850 c-98 -20 -159 -52 -225 -119 -113 -114 -154 -234 -152
-451 1 -204 37 -323 128 -420 88 -94 212 -136 374 -127 306 17 460 211 460
578 0 195 -38 320 -126 418 -94 105 -287 155 -459 121z m225 -132 c88 -28 155
-102 188 -208 25 -82 24 -343 -2 -423 -31 -93 -81 -156 -156 -195 -63 -33 -68
-34 -165 -30 -84 2 -109 7 -150 29 -58 30 -104 86 -136 166 -21 53 -23 74 -24
233 0 160 2 180 23 233 62 152 175 224 332 211 30 -3 71 -10 90 -16z"/>
<path d="M12100 2845 c-86 -25 -146 -70 -183 -140 -30 -56 -31 -201 -2 -260
35 -71 98 -121 243 -192 74 -37 150 -82 168 -100 108 -108 37 -275 -125 -297
-70 -9 -146 8 -239 56 -92 45 -102 44 -102 -19 0 -53 15 -77 67 -106 161 -87
387 -69 504 40 63 59 92 127 93 218 2 148 -60 223 -269 325 -147 72 -200 114
-215 171 -46 168 138 253 332 154 82 -41 93 -38 93 29 0 29 -6 51 -19 65 -51
56 -237 86 -346 56z"/>
<path d="M15145 2847 c-170 -44 -288 -171 -341 -367 -25 -90 -25 -310 0 -399
36 -132 97 -223 189 -282 131 -85 336 -91 488 -14 72 37 89 57 89 108 0 72 -6
73 -109 20 l-93 -48 -101 0 c-94 0 -106 2 -155 29 -119 66 -172 188 -172 396
0 211 68 357 195 416 77 37 189 34 273 -6 35 -17 75 -39 89 -50 38 -30 60 -26
65 11 9 61 -4 92 -56 126 -26 18 -71 40 -99 49 -70 21 -200 27 -262 11z"/>
<path d="M7648 2838 c-14 -12 -388 -1048 -388 -1074 0 -27 108 -34 134 -9 8 8
34 74 58 145 l42 130 227 0 c185 0 228 -3 232 -14 3 -8 24 -67 47 -132 23 -66
47 -125 53 -132 7 -9 30 -12 71 -10 53 3 61 6 64 24 4 30 -364 1056 -385 1072
-9 6 -44 12 -78 12 -34 0 -68 -6 -77 -12z m169 -418 l92 -270 -188 0 -188 0
91 270 c50 148 93 270 96 270 3 0 46 -122 97 -270z"/>
<path d="M8393 2843 c-10 -4 -13 -123 -13 -548 0 -602 -6 -555 66 -555 76 0
74 -9 74 270 l0 250 245 0 245 0 0 -250 c0 -280 -3 -270 75 -270 20 0 45 5 56
10 18 10 19 27 19 545 0 518 -1 535 -19 545 -11 5 -36 10 -56 10 -77 0 -75 6
-75 -240 l0 -220 -245 0 -245 0 0 220 c0 207 -1 220 -19 230 -20 10 -86 12
-108 3z"/>
<path d="M9718 2838 c-14 -12 -388 -1048 -388 -1074 0 -27 108 -34 134 -9 8 8
34 74 58 145 l42 130 227 0 c185 0 228 -3 232 -14 3 -8 24 -67 47 -132 23 -66
47 -125 53 -132 7 -9 30 -12 71 -10 53 3 61 6 64 24 4 30 -364 1056 -385 1072
-9 6 -44 12 -78 12 -34 0 -68 -6 -77 -12z m169 -418 l92 -270 -188 0 -188 0
91 270 c50 148 93 270 96 270 3 0 46 -122 97 -270z"/>
<path d="M14118 2838 c-14 -12 -388 -1048 -388 -1074 0 -27 108 -34 134 -9 8
8 34 74 58 145 l42 130 227 0 c185 0 228 -3 232 -14 3 -8 24 -67 47 -132 23
-66 47 -125 53 -132 7 -9 30 -12 71 -10 53 3 61 6 64 24 4 30 -364 1056 -385
1072 -9 6 -44 12 -78 12 -34 0 -68 -6 -77 -12z m169 -418 l92 -270 -188 0
-188 0 91 270 c50 148 93 270 96 270 3 0 46 -122 97 -270z"/>
<path d="M15783 2843 c-10 -4 -13 -123 -13 -548 0 -603 -6 -555 69 -555 72 0
71 -7 73 297 l3 273 190 -263 c105 -144 200 -272 212 -284 17 -18 33 -23 72
-23 62 0 81 7 81 30 0 10 -85 133 -189 272 -103 140 -194 263 -201 275 -12 19
2 39 178 252 106 128 192 240 192 250 0 11 -7 22 -16 25 -29 11 -99 6 -120 -9
-12 -8 -106 -122 -210 -254 l-189 -241 -3 243 c-2 213 -4 243 -19 255 -16 12
-86 15 -110 5z"/>
<path d="M5926 2824 c-14 -14 -16 -77 -16 -544 0 -584 -5 -540 65 -540 70 0
65 -39 65 493 0 276 4 477 9 472 5 -6 89 -219 187 -474 98 -256 185 -470 192
-478 17 -17 93 -17 114 0 9 6 103 228 210 492 l193 480 3 -484 c2 -373 5 -487
15 -493 17 -11 85 -10 108 2 18 10 19 27 19 515 0 497 -3 548 -33 567 -17 11
-141 10 -171 -2 -33 -12 -36 -19 -226 -478 -90 -216 -166 -389 -170 -385 -4 4
-81 194 -171 422 -188 477 -171 451 -301 451 -56 0 -81 -4 -92 -16z"/>
<path d="M10468 2830 c-17 -10 -18 -47 -18 -544 0 -591 -5 -546 65 -546 70 0
65 -37 65 474 l0 461 63 -120 c71 -135 329 -604 389 -707 45 -78 75 -98 147
-98 87 0 81 -38 81 555 0 579 5 535 -65 535 -70 0 -65 35 -65 -454 l0 -441
-74 140 c-137 261 -387 710 -407 730 -15 15 -35 20 -92 23 -39 1 -80 -2 -89
-8z"/>
<path d="M12758 2830 c-17 -10 -18 -47 -18 -544 0 -591 -5 -546 65 -546 70 0
65 -37 65 474 l0 461 63 -120 c71 -135 329 -604 389 -707 45 -78 75 -98 147
-98 87 0 81 -38 81 555 0 579 5 535 -65 535 -70 0 -65 35 -65 -454 l0 -441
-74 140 c-137 261 -387 710 -407 730 -15 15 -35 20 -92 23 -39 1 -80 -2 -89
-8z"/>
</g>
</svg>
